<svg width="150" height="84" viewBox="0 0 150 84" fill="none" xmlns="http://www.w3.org/2000/svg">
<path d="M1.05351 1.45471C2.68966e-06 2.7089 2.64123e-06 3.1604 0.100337 19.8661L0.250839 36.9731L11.8896 37.1237C26.7893 37.2742 25.5853 38.1772 25.5853 26.9397V18.6621H23.8294C22.1237 18.6621 22.0736 18.6119 22.0736 16.6554C22.0736 14.6989 22.1237 14.6487 23.8294 14.6487H25.5853V8.17713C25.5853 2.00655 25.5351 1.60521 24.4816 0.902874C23.5284 0.250698 21.5217 0.100197 12.7425 0.100197H2.05686L1.05351 1.45471ZM14.4482 11.2373C14.5987 14.2474 14.4983 14.5985 13.5452 14.8995C11.7893 15.4514 11.0368 14.2975 11.0368 11.137C11.0368 7.87613 11.2375 7.52495 13.0435 7.72562C14.2475 7.87613 14.2977 8.07679 14.4482 11.2373ZM13.8963 22.5751C14.699 23.0768 15.1003 27.642 14.4983 28.846C14.1472 29.4481 13.5451 29.6989 12.6421 29.5986C11.388 29.4481 11.2876 29.2976 11.1371 26.5384C10.9365 22.826 11.99 21.3711 13.8963 22.5751Z" fill="white"/>
<path d="M29.5986 35.3679C29.5986 66.873 29.699 70.8362 30.4013 71.5385C31.0033 72.1405 32.2575 72.3412 35.6689 72.3412H40.1337V37.3244C40.1337 -3.66225 40.8361 0.451469 33.8127 0.150467L29.5986 -3.05176e-05V35.3679Z" fill="white"/>
<path d="M44.7494 0.702325C43.8965 1.55517 43.9969 6.37123 44.8497 7.07357C45.3012 7.47491 47.1574 7.62541 50.0169 7.52508L54.4317 7.37457L54.5822 4.16387C54.6825 1.90634 54.532 0.80266 54.0805 0.551823C53.027 -0.150519 45.4517 -1.71661e-05 44.7494 0.702325Z" fill="white"/>
<path d="M88.2944 18.6621V37.224H92.7091C98.5787 37.224 98.8296 36.9732 98.8296 30.8026V26.1872H100.836H102.843V30.8528C102.843 36.9732 103.094 37.224 109.013 37.224H113.378V29.7992V22.4247H111.773C110.218 22.4247 110.117 22.3243 109.967 20.5183C109.816 18.7123 109.816 18.6621 111.572 18.6621H113.378V13.1437V7.6253H108.712C105.753 7.6253 103.846 7.82597 103.445 8.22731C103.044 8.62865 102.843 10.5852 102.843 13.7457V18.6621H100.836H98.8296V10.234C98.8296 -0.150627 98.9801 0.100212 92.659 0.100212H88.2944V18.6621Z" fill="white"/>
<path d="M129.783 1.10359C125.268 2.25744 121.405 5.46815 119.298 9.88287C117.391 13.8962 117.542 14.5484 119.799 12.3411C123.361 8.82935 130.636 6.12032 136.455 6.12032C139.365 6.12032 140.819 6.923 138.662 7.3745C136.505 7.82601 133.846 9.33103 132.793 10.7357C131.689 12.1906 131.187 15.4013 131.639 17.8595C132.341 21.5217 135.953 24.1805 140.217 24.1805C142.926 24.1805 145.134 23.0769 146.89 20.8193C148.044 19.214 148.244 18.5116 148.244 15.5518C148.244 13.6956 148.395 12.1404 148.646 12.1404C148.846 12.1404 148.997 12.5417 149.047 12.9932C149.047 13.5952 149.147 13.6454 149.348 13.2441C149.749 12.2407 147.191 7.52501 145.134 5.36781C141.572 1.7056 134.9 -0.150589 129.783 1.10359ZM143.478 10.3845C143.779 10.7859 143.98 11.4882 143.88 11.9899C143.779 12.4916 144.03 13.1437 144.432 13.4447C145.284 14.0969 144.682 15.3511 143.679 14.9498C143.177 14.7491 142.977 15.1003 142.977 16.2039C142.977 18.1605 140.87 20.1672 138.763 20.1672C137.91 20.1672 136.555 19.6655 135.753 19.0133C134.599 18.0601 134.298 17.4581 134.298 15.7524C134.298 14.5986 134.599 13.3444 134.9 12.9431C135.652 12.0902 138.913 10.8862 139.314 11.3377C139.515 11.4882 139.916 11.1872 140.318 10.6354C141.171 9.48153 142.625 9.33103 143.478 10.3845Z" fill="white"/>
<path d="M58.7961 22.2741L58.9466 36.9732H64.2142H69.4818L69.6323 25.7859L69.7326 14.6487H71.4884H73.2443V25.9364V37.224H78.7627H84.2811V22.4247V7.6253H71.4884H58.6958L58.7961 22.2741Z" fill="white"/>
<path d="M44.147 23.9298V36.7224H49.565H54.9329L54.6821 24.4314C54.4814 14.1973 54.2808 12.0401 53.6787 11.6388C53.2774 11.3879 50.9697 11.1371 48.5617 11.1371H44.147V23.9298Z" fill="white"/>
<path d="M118.194 20.9699C119.197 25.0837 122.107 28.796 126.02 31.0034C128.478 32.3579 129.08 32.4583 133.696 32.4583C137.91 32.4583 139.064 32.2576 140.769 31.3546C143.93 29.6489 145.886 27.7927 147.492 24.9833C149.599 21.3211 149.348 20.6188 146.89 23.0268C143.829 26.0368 140.619 27.291 136.254 27.291C129.833 27.291 124.465 25.3847 120.201 21.6221L117.843 19.5151L118.194 20.9699Z" fill="white"/>
<path d="M131.94 53.1773C131.94 69.4817 131.99 70.7358 132.843 71.4883C133.646 72.1907 135.05 72.3412 141.873 72.3412H150V68.5786V64.8663L146.639 64.7158L143.228 64.5653L143.077 57.3913L142.927 50.2676H146.488H150V46.4549V42.6422L146.639 42.8428L143.228 42.9933L143.077 39.3311L142.927 35.7191H137.458H131.94V53.1773Z" fill="white"/>
<path d="M0.802676 43.8461C0.100334 44.7993 0 47.5083 0 63.2107C0 74.7993 0.200669 81.7726 0.501672 82.4248C0.953177 83.2776 1.60535 83.3779 5.41806 83.3779C8.17726 83.3779 10.0334 83.1773 10.4348 82.7759C10.8361 82.3746 11.0368 80.4181 11.0368 77.2575V72.3411H18.311H25.5853V58.0435C25.5853 44.4481 25.5351 43.7458 24.6321 43.2441C24.0301 42.9431 19.2642 42.7424 12.592 42.7424C1.75585 42.7424 1.55518 42.7424 0.802676 43.8461ZM14.2977 57.5418V64.5652H12.7926H11.2876L11.1371 58.0936C11.087 54.4816 11.1371 51.2709 11.2876 50.8695C11.4381 50.4682 12.0903 50.2675 12.893 50.3679L14.2977 50.5184V57.5418Z" fill="white"/>
<path d="M44.1471 46.5049V50.2675H50.5685C56.1872 50.2675 57.1404 50.3678 57.8427 51.1705C58.3444 51.6722 58.6956 52.4748 58.6956 52.9263C58.6956 53.6789 57.9431 53.7792 52.4247 53.7792C43.8963 53.7792 44.1471 53.4782 44.1471 63.0601C44.1471 73.0936 42.9933 72.3411 57.9431 72.3411H69.7324V59.5484C69.7324 50.719 69.5317 46.4046 69.1304 45.5016C67.9765 42.9932 66.7224 42.7424 54.9331 42.7424H44.1471V46.5049ZM58.4448 63.0601C58.4448 64.3645 58.2441 64.5651 56.8896 64.7157C55.1839 64.8662 54.4314 63.913 54.9832 62.2073C55.1839 61.4548 55.6354 61.3043 56.8394 61.4046C58.2441 61.5551 58.4448 61.7558 58.4448 63.0601Z" fill="white"/>
<path d="M73.2441 57.5417V72.3411H77.9097C84.5318 72.3411 84.2809 72.7926 84.2809 61.0033C84.2809 51.1705 84.4314 50.2675 86.388 50.2675C87.9933 50.2675 88.2943 51.9732 88.2943 61.7558C88.2943 72.9933 87.893 72.3411 94.515 72.3411H98.8294V58.5451C98.8294 45.4013 98.7793 44.6989 97.8261 43.7457C96.8729 42.7926 96.1706 42.7424 85.0334 42.7424H73.2441V57.5417Z" fill="white"/>
<path d="M102.843 43.0937C102.843 43.3445 102.843 49.5652 102.843 57.0402C102.893 68.7793 102.993 70.6355 103.696 71.4382C104.448 72.2409 105.602 72.3412 116.488 72.3412H128.478L128.328 68.679L128.177 65.0669L121.053 64.9164C113.93 64.7659 113.88 64.7659 113.579 63.5619C113.428 62.9097 113.428 62.1071 113.629 61.8562C113.829 61.5051 116.538 61.3044 120.903 61.3044H127.876L128.027 54.1305C128.127 50.2174 127.977 46.3545 127.726 45.602C126.973 43.0435 125.569 42.7425 113.629 42.7425C107.709 42.7425 102.843 42.893 102.843 43.0937ZM117.14 52.0234C117.14 53.4281 116.99 53.5285 115.385 53.5285C114.08 53.5285 113.579 53.2776 113.478 52.6254C113.127 50.9198 113.779 50.2174 115.485 50.3679C116.94 50.5184 117.14 50.6689 117.14 52.0234Z" fill="white"/>
</svg>
