<svg width="200" height="69" viewBox="0 0 200 69" fill="none" xmlns="http://www.w3.org/2000/svg">
<g clip-path="url(#clip0_5_861)">
<path d="M137.125 0.79706C134.65 2.09237 133.3 3.78623 132.625 6.42666C132.275 7.72197 132.225 9.3411 132.3 16.5151L132.375 25.0342L133.075 26.5288C134.225 28.97 135.975 30.4895 138.5 31.2368C140.075 31.7101 149 31.8346 149 31.3862C149 30.7386 147.775 28.6711 146.875 27.7494C145.55 26.4292 144 25.7068 141.6 25.3083C138.675 24.7851 138.75 24.9844 138.75 18.4332V13.0277L140.825 12.9032C144.7 12.7039 147.925 10.462 148.875 7.27359L149.025 6.72558H143.9H138.75V3.48731C138.75 -0.0996914 138.775 -0.0747814 137.125 0.79706Z" fill="white"/>
<path d="M17.825 0.871775C15.45 1.59416 13.35 3.33784 12.25 5.45517C11.975 6.00318 11.75 6.52629 11.75 6.60102C11.75 6.67575 16.325 6.72557 21.95 6.67575L32.125 6.60102L33.4 5.92845C35.575 4.78261 37.275 2.9891 38 1.14578L38.25 0.498129L28.55 0.523038C21.3 0.523038 18.6 0.622677 17.825 0.871775Z" fill="white"/>
<path d="M17.075 13.1846C14.7 13.907 12.6 15.6507 11.5 17.768C11.225 18.3161 11 18.8392 11 18.9139C11 18.9886 15.575 19.0384 21.2 18.9886L24.625 18.9139L25.9 18.2413C28.075 17.0955 29.775 15.302 30.5 13.4586L30.75 12.811L21.05 12.8359C19.4 12.8359 17.85 12.9355 17.075 13.1846Z" fill="white"/>
<path d="M17.075 25.1846C14.7 25.907 12.6 27.6507 11.5 29.768C11.225 30.3161 11 30.8392 11 30.9139C11 30.9886 15.575 31.0384 21.2 30.9886L24.625 30.9139L25.9 30.2413C28.075 29.0955 29.775 27.302 30.5 25.4586L30.75 24.811L21.05 24.8359C19.4 24.8359 17.85 24.9355 17.075 25.1846Z" fill="white"/>
<path d="M38.1752 7.09927C31.7002 9.46569 31.2252 18.4332 37.4252 21.4722L39.1002 22.2942L45.0502 22.3689C50.7752 22.4686 51.0252 22.4935 51.3752 22.9917C51.8752 23.6892 51.8502 23.9881 51.2752 24.6855C50.8002 25.2834 50.7252 25.2834 44.7002 25.4079C38.9752 25.5325 38.5752 25.5574 37.5502 26.1054C35.5002 27.2014 33.6752 29.244 33.1252 31.0874L32.9502 31.6603L42.5502 31.5855C51.7252 31.5108 52.1752 31.4859 53.2752 30.9877C59.4002 28.1729 59.5502 19.7036 53.5502 16.7642C52.1252 16.0668 52.0752 16.0668 46.0502 15.9422C40.4002 15.8177 39.9252 15.7928 39.6002 15.3444C39.1252 14.6967 39.1502 14.3729 39.7502 13.6256L40.2502 12.978L46.2002 12.9032C51.7502 12.8285 52.2002 12.8036 53.2752 12.2556C55.4252 11.2094 57.3002 9.19169 57.8752 7.27364L58.0252 6.72562L48.5752 6.75053C41.1002 6.75053 38.9252 6.82526 38.1752 7.09927Z" fill="white"/>
<path d="M60.25 23.9382V41.126L60.825 40.9765C63.975 40.0299 66.5 36.5426 66.5 33.1299V31.6354L70.45 31.6105C73.325 31.6105 74.825 31.4859 76.025 31.187C81.375 29.792 85.3 24.6108 85.225 18.9812C85.175 13.5011 81.225 8.49421 75.825 7.09926C74.725 6.80034 72.775 6.72561 67.325 6.72561H60.25V23.9382ZM74.4 13.3267C79.225 14.7466 80.35 21.0238 76.325 24.0628C74.925 25.1339 73.275 25.4328 69.6 25.3581L66.625 25.2834L66.55 19.1058L66.5 12.9531H69.825C72.05 12.9531 73.575 13.0776 74.4 13.3267Z" fill="white"/>
<path d="M95.9499 7.2986C87.3749 10.213 84.6749 20.8495 90.8249 27.5502C93.2999 30.2654 96.0249 31.4361 99.8749 31.486C103.75 31.5109 106.7 30.2654 109.225 27.5004C115.4 20.7748 112.3 9.68993 103.525 7.12423C101.45 6.52639 98.0249 6.60112 95.9499 7.2986ZM102.65 13.6506C107.225 16.017 107.225 22.4437 102.625 24.5611C97.3749 27.0022 91.9249 21.5221 94.5249 16.4156C95.0999 15.2946 96.9499 13.6257 98.0499 13.252C99.2249 12.8535 101.475 13.0527 102.65 13.6506Z" fill="white"/>
<path d="M123.2 7.29855C119.225 8.66859 116.15 11.9069 115.125 15.8177C114.825 16.9884 114.75 18.8318 114.75 24.4614V31.6354H117.85H120.975L121.05 24.5859C121.125 16.6895 121.175 16.5401 123.15 14.622C124.375 13.4263 125.875 12.9531 128.3 12.9531H130.25V9.83935V6.72563H127.575C125.425 6.72563 124.525 6.85018 123.2 7.29855Z" fill="white"/>
<path d="M156.475 7.19895C152.125 8.59389 148.8 12.1062 147.85 16.3906C146.35 23.1412 150.7 29.9665 157.45 31.3614C159.2 31.7101 172.5 31.735 172.5 31.3863C172.5 30.8134 171.2 28.5964 170.375 27.7744C169.875 27.3011 168.9 26.6036 168.175 26.23C166.975 25.6072 166.6 25.5325 162.75 25.408C158.8 25.2585 158.55 25.2087 157.275 24.5361C156.55 24.1376 155.725 23.5148 155.45 23.1661L154.95 22.5434L160.675 22.3939C166.575 22.2444 167.25 22.1448 169.025 21.0239C172 19.1805 173.3 15.0455 172 11.6329C171.275 9.71483 169.5 7.94624 167.625 7.24877C166.4 6.80039 165.7 6.72566 162.05 6.75057C158.775 6.75057 157.575 6.85021 156.475 7.19895ZM165.675 13.5011C166.375 14.1488 166.4 14.7964 165.75 15.4441C165.275 15.9174 164.925 15.9423 160.125 15.9423C157.3 15.9423 155 15.8426 155 15.743C155 15.2946 156.75 13.8997 157.9 13.4513C158.85 13.0776 159.775 12.978 162.1 12.9531C164.825 12.9531 165.15 13.0029 165.675 13.5011Z" fill="white"/>
<path d="M180.2 7.09927C176.075 8.61876 173.975 13.1772 175.5 17.2624C176.225 19.1556 177.475 20.5007 179.425 21.4722L181.1 22.2942L187.05 22.3689C192.775 22.4686 193.025 22.4935 193.375 22.9917C193.875 23.6892 193.85 23.9881 193.275 24.6855C192.8 25.2834 192.725 25.2834 186.7 25.4079C180.725 25.5325 180.6 25.5325 179.375 26.205C177.5 27.1765 175.7 29.244 175.125 31.0874L174.95 31.6603L184.55 31.5855L194.125 31.5108L195.55 30.8133C197.175 30.0162 198.575 28.5715 199.325 26.9274C200.15 25.1339 200.1 22.2444 199.175 20.3762C198.375 18.757 196.925 17.3621 195.275 16.6148C194.225 16.1166 193.55 16.0668 188.05 15.9422C182.4 15.8177 181.925 15.7928 181.6 15.3444C181.125 14.6967 181.15 14.3729 181.75 13.6256L182.25 12.978L188.2 12.9032C193.925 12.8285 194.175 12.8036 195.375 12.2058C196.975 11.4336 198.725 9.66497 199.45 8.17039C199.75 7.52273 200 6.9249 200 6.85017C200 6.77544 195.75 6.72562 190.575 6.75053C183.225 6.75053 180.925 6.82526 180.2 7.09927Z" fill="white"/>
<path d="M35 38.1617C33.375 38.9588 31.7 40.7523 31.025 42.3715L30.425 43.7664L26.15 43.891C22.625 44.0155 21.6 44.1151 20.275 44.5635C16.925 45.7094 14.35 48.026 12.8 51.2642C11.875 53.1823 11.875 53.2072 11.875 56.4206C11.875 59.6339 11.875 59.6588 12.8 61.6018C14.35 64.8151 16.9 67.1068 20.25 68.2776C21.775 68.8256 22.35 68.8505 29.2 68.9502L36.5 69.0498V53.3318C36.5 44.6881 36.425 37.6137 36.325 37.6137C36.2 37.6137 35.625 37.8628 35 38.1617ZM30.25 56.4206V62.5235H26.575C23.4 62.5235 22.725 62.4487 21.75 62.0003C16.925 59.8332 16.775 53.3816 21.475 50.9902C22.775 50.3426 23 50.3177 26.55 50.3177H30.25V56.4206Z" fill="white"/>
<path d="M77.0749 37.9874C74.4249 38.8094 71.9249 41.0762 70.9749 43.5422C70.5749 44.5884 70.4249 45.5101 70.3999 47.0794C70.3999 48.9476 70.4749 49.396 71.1749 50.8408C72.2499 53.1325 73.4499 54.378 75.6999 55.4989L77.5999 56.4206L85.3999 56.5451L93.1999 56.6697L93.8499 57.2675C94.8249 58.1892 95.1499 59.4596 94.6749 60.5805C93.9249 62.374 93.8749 62.374 84.6249 62.5235L76.3499 62.648L74.6999 63.47C72.5999 64.4913 71.0749 66.235 70.4749 68.3025L70.2749 69.0249L82.1999 68.9502L94.1249 68.8754L95.7999 68.0783C97.8499 67.1069 99.4249 65.5874 100.4 63.6195C101.4 61.5769 101.55 58.3635 100.75 56.2213C99.6999 53.4314 97.3999 51.3141 94.5249 50.4671C93.4249 50.1433 91.8249 50.0686 86.1499 50.0686C79.5749 50.0686 79.0749 50.0437 78.2999 49.5704C76.5749 48.5242 76.3249 46.3321 77.7749 44.9372L78.5249 44.2148L86.9499 44.0902L95.3749 43.9657L96.7749 43.318C97.5499 42.9444 98.6499 42.2469 99.1999 41.7487C100.15 40.8769 101.5 38.6599 101.5 37.9375C101.5 37.4643 78.5999 37.4892 77.0749 37.9874Z" fill="white"/>
<path d="M152.675 38.2613C151.175 39.0335 149.7 40.5281 148.95 42.0476C148.375 43.1935 148.375 43.3678 148.3 52.6592C148.225 63.1212 148.25 63.3703 149.85 65.5126C150.3 66.1353 151.125 66.9573 151.7 67.331C153.625 68.6761 154.475 68.8505 159.825 68.9501C165.475 69.0498 165.325 69.1245 164.025 66.8577C162.65 64.4664 160.175 62.922 157.275 62.6231C155.975 62.4736 155.625 62.3241 155.125 61.7263C154.5 61.0039 154.5 60.9541 154.5 55.6981V50.3924L156.6 50.2678C160.025 50.0436 162.5 48.5989 164.025 45.9833C165.3 43.7415 165.475 43.8411 159.625 43.8411H154.5V40.7274C154.5 38.3859 154.425 37.6137 154.2 37.6137C154.025 37.6386 153.325 37.9126 152.675 38.2613Z" fill="white"/>
<path d="M38.8751 44.3892C39.4751 46.3819 41.3501 48.4744 43.4751 49.5206C44.8501 50.1931 44.9501 50.1931 50.8251 50.3177C56.3751 50.4422 56.8251 50.4671 57.1501 50.9155C57.6501 51.613 57.5751 52.1361 56.9501 52.7588C56.4001 53.257 56.0751 53.2819 50.3751 53.3567C44.6751 53.4314 44.3251 53.4563 43.3001 54.0043C41.6501 54.8762 40.3251 56.1964 39.5751 57.7408C38.9751 58.9365 38.8751 59.4596 38.9001 61.1534C38.9001 64.3917 40.3001 66.6336 43.2001 68.0534L44.8751 68.8754L54.3251 68.9502L63.7751 69.0249L63.7001 59.2354C63.6251 49.5704 63.6251 49.4209 63.0501 48.3747C61.7251 45.9087 59.8001 44.5137 57.0751 44.0902C56.2751 43.9408 51.8251 43.8411 47.1751 43.8411H38.7251L38.8751 44.3892ZM57.4501 61.0787L57.5251 62.5235H51.8501C45.6001 62.5235 45.2501 62.4487 45.2501 61.004C45.2501 59.6339 45.7751 59.5094 51.8751 59.5841L57.3751 59.6588L57.4501 61.0787Z" fill="white"/>
<path d="M113.825 44.1152C107 45.286 102.45 51.4387 103.425 58.2141C104.9 68.3026 117.4 72.4625 124.575 65.2138C127.1 62.6481 128.25 59.908 128.25 56.4206C128.25 52.9333 127.1 50.1932 124.625 47.6773C121.775 44.8127 117.675 43.4426 113.825 44.1152ZM118.525 51.0152C123.025 53.3567 123.025 59.4845 118.525 61.826C116.225 63.0217 113.725 62.6979 111.8 60.9542C109.025 58.4134 108.975 54.5524 111.675 51.9867C113.575 50.1683 116.2 49.7946 118.525 51.0152Z" fill="white"/>
<path d="M141.125 44.0903C136.075 44.8625 131.825 48.848 130.775 53.7552C130.6 54.5523 130.5 57.8653 130.5 62.0253V69H133.6H136.725L136.8 61.9755C136.875 53.9545 136.9 53.8798 139.075 51.887C140.425 50.6415 141.475 50.3177 144.075 50.3177H146V47.0794V43.8412L144.2 43.8661C143.2 43.891 141.825 43.9906 141.125 44.0903Z" fill="white"/>
<path d="M172.65 44.3643C169.675 45.0866 166.05 48.026 164.65 50.8657C161.075 58.1643 165.3 66.9574 173.175 68.6264C174.4 68.9004 176.725 69 181.575 69C189.175 69 188.825 69.1245 187.525 66.8578C186.6 65.2884 185.3 64.1177 183.525 63.3206C182.275 62.7477 181.7 62.6729 178 62.5235C175.3 62.4238 173.65 62.2744 173.25 62.0502C172.525 61.6516 170.75 60.0325 170.75 59.7336C170.75 59.6339 173.375 59.5343 176.575 59.5343C182.175 59.5343 182.425 59.5094 183.65 58.9365C185.35 58.1394 186.75 56.869 187.5 55.3744C188.025 54.3531 188.125 53.83 188.125 51.8123C188.125 49.0971 187.625 47.7769 186.025 46.2325C184.1 44.4141 183.425 44.2148 178.25 44.165C175.7 44.1401 173.2 44.2397 172.65 44.3643ZM181.5 50.8159C181.775 51.0899 182 51.5383 182 51.8123C182 52.0863 181.775 52.5347 181.5 52.8087C181.025 53.2819 180.675 53.3069 175.875 53.3069C173.05 53.3069 170.75 53.2072 170.75 53.1076C170.75 52.8087 172.275 51.4386 172.975 51.065C174.15 50.4671 174.875 50.3675 177.95 50.3426C180.675 50.3177 181.05 50.3675 181.5 50.8159Z" fill="white"/>
</g>
<defs>
<clipPath id="clip0_5_861">
<rect width="200" height="69" fill="white"/>
</clipPath>
</defs>
</svg>
